<svg xmlns="http://www.w3.org/2000/svg" viewBox="0 0 100 100">
  <path fill="#242629" d="M50 14.54c-26.49 0-48.038 21.55-48.038 48.04 0 7.498 1.68 14.682 4.996 21.352.33.665.915 1.168 1.622 1.395.707.226 1.475.16 2.13-.19l10.248-5.44c1.344-.712 1.854-2.378 1.142-3.72-.714-1.342-2.38-1.853-3.72-1.14l-7.67 4.072c-2.156-5.166-3.247-10.647-3.247-16.33 0-7.4 1.903-14.36 5.238-20.428l2.067 1.6c.5.387 1.095.575 1.683.575.82 0 1.634-.368 2.176-1.067.93-1.2.712-2.93-.49-3.86l-2.46-1.905C22.898 27.638 34.254 21 47.17 20.145l-.002 2.36c0 1.52 1.233 2.75 2.752 2.75 1.518 0 2.75-1.23 2.75-2.75v-2.372c13.074.815 24.56 7.56 31.804 17.573L82.287 39.4c-1.2.93-1.42 2.66-.49 3.86.543.7 1.356 1.066 2.178 1.066.588 0 1.18-.188 1.683-.576l1.768-1.37c3.257 6.012 5.11 12.892 5.11 20.196 0 5.718-1.103 11.227-3.28 16.414l-8.54-4.195c-1.362-.67-3.01-.106-3.68 1.256-.67 1.366-.108 3.014 1.256 3.685l11.074 5.44c.39.192.804.282 1.21.282 1.013 0 1.986-.56 2.467-1.528 3.314-6.67 4.995-13.854 4.995-21.354C98.038 36.09 76.49 14.54 50 14.54z"/>
  <path fill="#242629" d="M49.263 63.508l23.58-26.406c.54-.605.53-1.523-.02-2.116-.552-.595-1.466-.672-2.11-.18L42.7 56.266c-.03.024-.06.05-.09.078-1.46 1.306-2.067 2.953-1.78 4.57.136.78.483 1.556 1.044 2.282.853 1.104 1.983 1.75 3.268 1.866 1.387.127 2.844-.395 4-1.43.043-.04.085-.08.123-.124z"/>
</svg>
